<svg width="21" height="34" viewBox="0 0 21 34" fill="none" xmlns="http://www.w3.org/2000/svg">
<g clip-path="url(#clip0_243_7870)">
<path d="M10.5 3.1875C10.5 2.34212 10.8319 1.53137 11.4226 0.933597C12.0133 0.335825 12.8145 0 13.65 0C14.4854 0 15.2866 0.335825 15.8774 0.933597C16.4681 1.53137 16.8 2.34212 16.8 3.1875C16.8 4.03288 16.4681 4.84363 15.8774 5.4414C15.2866 6.03917 14.4854 6.375 13.65 6.375C12.8145 6.375 12.0133 6.03917 11.4226 5.4414C10.8319 4.84363 10.5 4.03288 10.5 3.1875ZM8.30154 13.2348C8.23592 13.2613 8.17685 13.2879 8.11123 13.3145L7.58623 13.5469C6.50998 14.0316 5.6831 14.9547 5.30904 16.0836L5.13842 16.6016C4.77092 17.7172 3.5831 18.3148 2.4806 17.943C1.3781 17.5711 0.787478 16.3691 1.15498 15.2535L1.3256 14.7355C2.07373 12.4711 3.72748 10.625 5.87998 9.65547L6.40498 9.42305C7.76998 8.81211 9.24654 8.49336 10.7428 8.49336C13.6697 8.49336 16.3078 10.273 17.43 13.0023L18.4406 15.4527L19.845 16.1633C20.8819 16.6879 21.3019 17.9629 20.7834 19.0121C20.265 20.0613 19.005 20.4863 17.9681 19.9617L16.2094 19.0785C15.5334 18.7332 15.0019 18.1621 14.7131 17.4516L14.0831 15.9242L12.8165 20.2738L16.065 23.8598C16.4194 24.2516 16.6687 24.723 16.8 25.241L18.3094 31.357C18.5915 32.4926 17.909 33.648 16.7803 33.9336C15.6515 34.2191 14.5162 33.5285 14.234 32.3863L12.7903 26.5359L8.1506 21.416C7.17935 20.3469 6.81842 18.8527 7.18591 17.4516L8.29498 13.2348H8.30154ZM4.50841 26.4297L6.14904 22.2859C6.28685 22.4852 6.44435 22.6711 6.60841 22.857L9.27935 25.8055L8.32779 28.2094C8.17029 28.6078 7.93404 28.973 7.63216 29.2785L3.5831 33.3758C2.76279 34.2059 1.4306 34.2059 0.610291 33.3758C-0.210022 32.5457 -0.210022 31.1977 0.610291 30.3676L4.50841 26.4297Z" fill="white"/>
</g>
<defs>
<clipPath id="clip0_243_7870">
<rect width="21" height="34" fill="white"/>
</clipPath>
</defs>
</svg>
